<svg width="100" height="40" viewBox="0 0 100 40" fill="none" xmlns="http://www.w3.org/2000/svg">
<rect width="100" height="40" fill="#C6B393"/>
<path d="M29.0489 15.116C29.7302 15.116 30.3229 15.214 30.8269 15.41C31.3309 15.606 31.8022 15.9047 32.2409 16.306L31.3309 17.356C30.9856 17.0667 30.6356 16.8567 30.2809 16.726C29.9356 16.5953 29.5622 16.53 29.1609 16.53C28.7129 16.53 28.3489 16.6327 28.0689 16.838C27.7982 17.034 27.6629 17.314 27.6629 17.678C27.6629 17.9207 27.7142 18.1213 27.8169 18.28C27.9289 18.4387 28.1249 18.588 28.4049 18.728C28.6849 18.868 29.1002 19.022 29.6509 19.19C30.6029 19.4887 31.3169 19.862 31.7929 20.31C32.2782 20.7487 32.5209 21.3927 32.5209 22.242C32.5209 22.8207 32.3716 23.334 32.0729 23.782C31.7836 24.23 31.3636 24.58 30.8129 24.832C30.2622 25.084 29.6089 25.21 28.8529 25.21C28.1156 25.21 27.4529 25.0933 26.8649 24.86C26.2862 24.6173 25.7869 24.2907 25.3669 23.88L26.3189 22.816C26.6922 23.1333 27.0796 23.376 27.4809 23.544C27.8822 23.7027 28.3256 23.782 28.8109 23.782C29.3429 23.782 29.7722 23.656 30.0989 23.404C30.4256 23.152 30.5889 22.7973 30.5889 22.34C30.5889 22.06 30.5329 21.8313 30.4209 21.654C30.3089 21.4673 30.1176 21.304 29.8469 21.164C29.5762 21.0147 29.1842 20.8607 28.6709 20.702C27.6442 20.3847 26.9022 20.002 26.4449 19.554C25.9876 19.106 25.7589 18.518 25.7589 17.79C25.7589 17.258 25.8989 16.7913 26.1789 16.39C26.4589 15.9887 26.8462 15.676 27.3409 15.452C27.8449 15.228 28.4142 15.116 29.0489 15.116ZM43.7109 15.326L43.5149 16.698H39.9449V19.4H43.0529V20.772H39.9449V23.614H43.7669V25H38.0969V15.326H43.7109ZM56.6607 25H54.2667L50.9487 17.174C51.0327 17.8647 51.0934 18.49 51.1307 19.05C51.1774 19.61 51.2007 20.2773 51.2007 21.052V25H49.5207V15.326H51.8587L55.2327 23.166C55.1767 22.7927 55.1207 22.3027 55.0647 21.696C55.0087 21.08 54.9807 20.4687 54.9807 19.862V15.326H56.6607V25ZM65.307 15.326C66.8096 15.326 68.009 15.6667 68.905 16.348C69.8103 17.0293 70.263 18.2847 70.263 20.114C70.263 21.906 69.8196 23.1707 68.933 23.908C68.0463 24.636 66.9216 25 65.559 25H62.927V15.326H65.307ZM64.775 16.712V23.614H65.685C66.5063 23.614 67.1503 23.362 67.617 22.858C68.0836 22.3447 68.317 21.43 68.317 20.114C68.317 19.1993 68.1956 18.4947 67.953 18C67.7196 17.496 67.407 17.1553 67.015 16.978C66.6323 16.8007 66.1703 16.712 65.629 16.712H64.775Z" fill="white"/>
</svg>
